<?xml version="1.0" standalone="no"?>
<!DOCTYPE svg PUBLIC "-//W3C//DTD SVG 20010904//EN"
 "http://www.w3.org/TR/2001/REC-SVG-20010904/DTD/svg10.dtd">
<svg version="1.0" xmlns="http://www.w3.org/2000/svg"
 width="500.000000pt" height="500.000000pt" viewBox="0 0 500.000000 500.000000"
 preserveAspectRatio="xMidYMid meet">
<metadata>
Created by potrace 1.14, written by Peter Selinger 2001-2017
</metadata>
<g transform="translate(0.000000,500.000000) scale(0.100000,-0.100000)"
fill="#000000" stroke="none">
<path d="M2294 4769 c-98 -12 -269 -85 -354 -149 -19 -15 -54 -30 -76 -33
-105 -17 -289 -123 -394 -228 -87 -87 -141 -183 -161 -287 -13 -69 -8 -194 12
-278 l12 -51 -61 -60 c-68 -66 -190 -131 -486 -259 -218 -95 -269 -142 -268
-249 0 -58 19 -102 59 -136 15 -13 40 -42 54 -64 57 -88 135 -150 211 -169 15
-3 39 -18 53 -32 22 -22 25 -31 18 -62 -4 -20 -7 -53 -6 -72 0 -19 0 -48 0
-65 -1 -187 -3 -177 35 -251 86 -171 111 -198 188 -198 35 0 73 14 165 60 126
62 145 81 170 169 8 27 9 25 16 -30 7 -57 6 -64 -35 -150 -93 -194 -166 -415
-183 -556 -17 -142 3 -296 51 -388 22 -41 25 -64 30 -196 3 -82 8 -161 11
-175 3 -14 8 -41 11 -60 21 -125 80 -269 145 -356 63 -83 80 -100 198 -197 48
-39 100 -59 135 -53 80 15 84 72 17 231 -58 136 -141 471 -123 490 3 3 16 -32
28 -77 31 -115 58 -179 84 -200 32 -26 86 -23 115 7 23 23 25 31 26 137 1 62
3 125 4 140 15 123 97 316 192 451 54 78 64 91 88 120 6 7 24 30 40 52 17 22
33 42 37 45 4 4 39 49 77 100 79 107 139 206 201 328 l41 83 82 -115 c45 -63
192 -276 327 -472 242 -352 279 -402 303 -406 7 0 181 -2 387 -3 423 -3 434
-1 445 58 4 21 2 44 -6 58 -12 23 -164 233 -184 255 -5 6 -28 37 -50 68 -22
31 -74 102 -115 158 -41 55 -82 111 -90 123 -8 13 -69 96 -135 185 -153 206
-235 319 -235 324 0 2 12 6 28 9 55 11 207 82 276 128 253 170 407 422 471
769 14 76 14 324 1 385 -75 339 -257 592 -540 750 -94 52 -259 102 -396 119
-127 16 -161 19 -227 20 -40 1 -75 5 -79 9 -4 3 1 22 10 41 28 59 11 109 -42
127 -65 21 -298 2 -429 -37 -20 -5 -22 -3 -21 36 1 73 -41 94 -158 79z m761
-990 c93 -15 200 -67 257 -124 87 -86 120 -194 106 -335 -18 -168 -127 -286
-309 -336 -30 -8 -123 -17 -207 -20 l-152 -5 -14 33 c-8 18 -44 85 -81 148
-85 148 -110 227 -110 345 0 102 18 169 68 252 l31 52 75 3 c122 5 261 -1 336
-13z m-1760 -876 c10 -20 17 -54 17 -76 -1 -34 -7 -46 -39 -74 -21 -19 -50
-40 -65 -48 -25 -14 -28 -13 -56 20 -30 33 -30 36 -25 112 3 43 11 83 17 90 6
7 29 19 51 26 49 17 74 5 100 -50z"/>
</g>
</svg>
