<svg width="149" height="297" viewBox="0 0 149 297" fill="none" xmlns="http://www.w3.org/2000/svg">
<path d="M-0.000114441 47.1698C56.515 47.1698 102.33 92.9849 102.33 149.5C102.33 206.015 56.515 251.83 -0.000114441 251.83" fill="#FFC200"/>
<path d="M114.091 149.5C114.091 212.508 63.0085 263.59 0.000409007 263.59" stroke="white" stroke-opacity="0.38" stroke-width="1.10424" stroke-miterlimit="10"/>
<path d="M0.000409007 35.4096C63.0085 35.4096 114.091 86.492 114.091 149.5" stroke="white" stroke-opacity="0.38" stroke-width="4.41697" stroke-miterlimit="10"/>
<path d="M114.091 149.5C114.091 212.508 63.0085 263.59 0.000409007 263.59" stroke="#FFC200" stroke-width="1.10424" stroke-miterlimit="10"/>
<path d="M0.000409007 35.4096C63.0085 35.4096 114.091 86.492 114.091 149.5" stroke="#FFC200" stroke-width="4.41697" stroke-miterlimit="10"/>
<path d="M124.625 149.5C124.625 218.328 68.8276 274.125 0.000133218 274.125" stroke="white" stroke-opacity="0.38" stroke-width="1.10424" stroke-miterlimit="10"/>
<path d="M0.000133218 24.8752C68.8276 24.8752 124.625 80.6726 124.625 149.5" stroke="white" stroke-opacity="0.38" stroke-width="4.41697" stroke-miterlimit="10"/>
<path d="M124.625 149.5C124.625 218.328 68.8276 274.125 0.000133218 274.125" stroke="#FFC200" stroke-width="1.10424" stroke-miterlimit="10"/>
<path d="M0.000133218 24.8752C68.8276 24.8752 124.625 80.6726 124.625 149.5" stroke="#FFC200" stroke-width="4.41697" stroke-miterlimit="10"/>
<path d="M135.115 149.5C135.115 224.125 74.6248 284.615 5.75792e-05 284.615" stroke="#FFC200" stroke-width="1.10424" stroke-miterlimit="10"/>
<path d="M5.75792e-05 14.3849C74.6248 14.3849 135.115 74.8753 135.115 149.5" stroke="#FFC200" stroke-width="4.41697" stroke-miterlimit="10"/>
<path d="M146.5 149.5C146.5 230.408 80.908 296 7.89278e-05 296" stroke="#FFC200" stroke-width="1.10424" stroke-miterlimit="10"/>
<path d="M7.89278e-05 3.00012C80.908 3.00012 146.5 68.5922 146.5 149.5" stroke="#FFC200" stroke-width="4.41697" stroke-miterlimit="10"/>
</svg>
