<svg width="177" height="101" viewBox="0 0 177 101" fill="none" xmlns="http://www.w3.org/2000/svg">
<path fill-rule="evenodd" clip-rule="evenodd" d="M81.4888 96.4091L111.621 9.99108C111.984 9.12606 112.184 8.17359 112.184 7.1733C112.184 3.21159 109.038 0 105.157 0C102.591 0 100.347 1.40392 99.1202 3.50033L98.9916 3.44317L68.4423 90.6477C68.2044 91.138 68.0199 91.6601 67.8964 92.2059L67.4291 93.5398L67.7197 93.5991C67.7174 93.6747 67.7163 93.7505 67.7163 93.8267C67.7163 97.7884 70.8623 101 74.7432 101C77.7454 101 80.308 99.0779 81.3143 96.3735L81.4888 96.4091ZM53.561 29.4056C55.1939 28.0907 56.2388 26.0751 56.2388 23.8154C56.2388 19.8537 53.0272 16.6421 49.0655 16.6421C47.2761 16.6421 45.6398 17.2973 44.3832 18.3808L4.01716 41.6051L4.14255 41.6701C1.68721 43.1261 0 46.1477 0 49.6392C0 53.6647 2.24278 57.0656 5.31976 58.1626L44.273 81.3744C45.5433 82.5158 47.2233 83.2102 49.0655 83.2102C53.0272 83.2102 56.2388 79.9986 56.2388 76.0369C56.2388 72.6216 53.852 69.7638 50.6556 69.0404L19.5115 49.6392L53.6564 29.554L53.561 29.4056ZM124.282 29.4057C122.683 28.0908 121.659 26.0751 121.659 23.8154C121.659 19.8537 124.805 16.6421 128.686 16.6421C130.439 16.6421 132.041 17.2971 133.272 18.3804L172.815 41.6051L172.692 41.6702C175.097 43.1262 176.75 46.1478 176.75 49.6392C176.75 53.6644 174.553 57.065 171.54 58.1623L133.38 81.3748C132.136 82.5159 130.49 83.2102 128.686 83.2102C124.805 83.2102 121.659 79.9986 121.659 76.0369C121.659 72.6215 123.997 69.7636 127.129 69.0404L157.637 49.6392L124.189 29.554L124.282 29.4057Z" fill="#FF9D00" fill-opacity="0.58"/>
</svg>
