<svg width="459" height="396" viewBox="0 0 459 396" fill="none" xmlns="http://www.w3.org/2000/svg">
<path d="M355.058 6.91528C319.799 6.91528 291.22 35.4944 291.22 70.754C291.22 106.014 319.799 134.593 355.058 134.593C390.318 134.593 418.897 106.014 418.897 70.754C418.897 35.4944 390.318 6.91528 355.058 6.91528ZM355.058 109.526C333.644 109.526 316.287 92.1682 316.287 70.754C316.287 49.3399 333.644 31.9825 355.058 31.9825C376.473 31.9825 393.83 49.3399 393.83 70.754C393.83 92.1682 376.473 109.526 355.058 109.526Z" fill="#FFC200"/>
<path d="M217.108 395.367C326.118 395.367 414.487 306.997 414.487 197.987C414.487 88.9777 326.118 0.60791 217.108 0.60791C108.098 0.60791 19.7285 88.9777 19.7285 197.987C19.7285 306.997 108.098 395.367 217.108 395.367Z" fill="#F9F5EF"/>
<path d="M220.034 46.9381C221.427 46.9381 222.556 45.8085 222.556 44.4152C222.556 43.0219 221.427 41.8923 220.034 41.8923C218.64 41.8923 217.511 43.0219 217.511 44.4152C217.511 45.8085 218.64 46.9381 220.034 46.9381Z" fill="#114A82"/>
<path d="M246.403 49.1279C245.04 49.1279 243.94 48.0279 243.94 46.6656C243.94 45.3032 245.04 44.2032 246.403 44.2032C247.765 44.2032 248.865 45.3032 248.865 46.6656C248.865 48.0279 247.765 49.1279 246.403 49.1279Z" fill="#114A82"/>
<path d="M271.995 55.8287C273.321 55.8287 274.396 54.7534 274.396 53.4269C274.396 52.1005 273.321 51.0251 271.995 51.0251C270.668 51.0251 269.593 52.1005 269.593 53.4269C269.593 54.7534 270.668 55.8287 271.995 55.8287Z" fill="#114A82"/>
<path d="M296.023 66.8486C294.731 66.8486 293.682 65.7991 293.682 64.5074C293.682 63.2156 294.731 62.1661 296.023 62.1661C297.315 62.1661 298.364 63.2156 298.364 64.5074C298.374 65.7991 297.325 66.8486 296.023 66.8486Z" fill="#114A82"/>
<path d="M317.8 81.8243C316.539 81.8243 315.52 80.8051 315.52 79.5436C315.52 78.2822 316.539 77.2629 317.8 77.2629C319.062 77.2629 320.081 78.2822 320.081 79.5436C320.081 80.8051 319.062 81.8243 317.8 81.8243Z" fill="#114A82"/>
<path d="M336.681 100.312C337.913 100.312 338.912 99.3135 338.912 98.0818C338.912 96.8501 337.913 95.8516 336.681 95.8516C335.45 95.8516 334.451 96.8501 334.451 98.0818C334.451 99.3135 335.45 100.312 336.681 100.312Z" fill="#114A82"/>
<path d="M352.11 121.746C350.909 121.746 349.94 120.777 349.94 119.577C349.94 118.376 350.909 117.407 352.11 117.407C353.311 117.407 354.28 118.376 354.28 119.577C354.28 120.777 353.311 121.746 352.11 121.746Z" fill="#114A82"/>
<path d="M365.723 143.772C365.908 142.622 365.127 141.539 363.977 141.354C362.827 141.168 361.744 141.95 361.559 143.1C361.373 144.25 362.155 145.332 363.305 145.518C364.455 145.704 365.537 144.922 365.723 143.772Z" fill="#114A82"/>
<path d="M370.851 170.912C369.721 170.912 368.803 169.994 368.803 168.864C368.803 167.733 369.721 166.815 370.851 166.815C371.982 166.815 372.9 167.733 372.9 168.864C372.9 169.994 371.982 170.912 370.851 170.912Z" fill="#114A82"/>
<path d="M373.586 197.17C372.486 197.17 371.598 196.282 371.598 195.182C371.598 194.082 372.486 193.194 373.586 193.194C374.686 193.194 375.574 194.082 375.574 195.182C375.574 196.282 374.686 197.17 373.586 197.17Z" fill="#114A82"/>
<path d="M371.809 223.519C370.74 223.519 369.882 222.651 369.882 221.591C369.882 220.522 370.75 219.664 371.809 219.664C372.879 219.664 373.737 220.532 373.737 221.591C373.737 222.651 372.869 223.519 371.809 223.519Z" fill="#114A82"/>
<path d="M365.523 249.161C364.494 249.161 363.656 248.324 363.656 247.294C363.656 246.265 364.494 245.427 365.523 245.427C366.552 245.427 367.39 246.265 367.39 247.294C367.39 248.324 366.552 249.161 365.523 249.161Z" fill="#114A82"/>
<path d="M354.886 273.341C353.887 273.341 353.08 272.533 353.08 271.534C353.08 270.535 353.887 269.728 354.886 269.728C355.885 269.728 356.693 270.535 356.693 271.534C356.693 272.523 355.885 273.341 354.886 273.341Z" fill="#114A82"/>
<path d="M340.243 295.32C339.274 295.32 338.497 294.533 338.497 293.574C338.497 292.605 339.284 291.828 340.243 291.828C341.212 291.828 341.989 292.615 341.989 293.574C341.989 294.533 341.212 295.32 340.243 295.32Z" fill="#114A82"/>
<path d="M322.048 314.474C321.109 314.474 320.353 313.717 320.353 312.778C320.353 311.84 321.109 311.083 322.048 311.083C322.986 311.083 323.743 311.84 323.743 312.778C323.733 313.717 322.976 314.474 322.048 314.474Z" fill="#114A82"/>
<path d="M300.836 330.236C299.938 330.236 299.201 329.51 299.201 328.602C299.201 327.693 299.928 326.967 300.836 326.967C301.744 326.967 302.471 327.693 302.471 328.602C302.471 329.51 301.734 330.236 300.836 330.236Z" fill="#114A82"/>
<path d="M277.223 342.124C276.355 342.124 275.648 341.418 275.648 340.55C275.648 339.682 276.355 338.976 277.223 338.976C278.091 338.976 278.797 339.682 278.797 340.55C278.797 341.418 278.091 342.124 277.223 342.124Z" fill="#114A82"/>
<path d="M251.902 349.753C251.065 349.753 250.389 349.077 250.389 348.24C250.389 347.402 251.065 346.726 251.902 346.726C252.74 346.726 253.416 347.402 253.416 348.24C253.416 349.077 252.74 349.753 251.902 349.753Z" fill="#114A82"/>
<path d="M225.634 352.912C224.827 352.912 224.181 352.266 224.181 351.459C224.181 350.651 224.827 350.006 225.634 350.006C226.441 350.006 227.087 350.651 227.087 351.459C227.087 352.266 226.441 352.912 225.634 352.912Z" fill="#114A82"/>
<path d="M199.204 351.55C198.437 351.55 197.812 350.924 197.812 350.157C197.812 349.39 198.437 348.764 199.204 348.764C199.971 348.764 200.597 349.39 200.597 350.157C200.597 350.924 199.971 351.55 199.204 351.55Z" fill="#114A82"/>
<path d="M173.391 345.676C172.654 345.676 172.059 345.081 172.059 344.344C172.059 343.608 172.654 343.012 173.391 343.012C174.127 343.012 174.723 343.608 174.723 344.344C174.723 345.081 174.127 345.676 173.391 345.676Z" fill="#114A82"/>
<path d="M148.959 335.423C148.253 335.423 147.688 334.848 147.688 334.152C147.688 333.446 148.263 332.88 148.959 332.88C149.665 332.88 150.231 333.456 150.231 334.152C150.241 334.858 149.665 335.423 148.959 335.423Z" fill="#114A82"/>
<path d="M126.657 321.124C125.981 321.124 125.446 320.579 125.446 319.913C125.446 319.247 125.991 318.702 126.657 318.702C127.323 318.702 127.868 319.247 127.868 319.913C127.868 320.579 127.333 321.124 126.657 321.124Z" fill="#114A82"/>
<path d="M107.11 303.222C107.751 303.222 108.27 302.702 108.27 302.061C108.27 301.42 107.751 300.901 107.11 300.901C106.469 300.901 105.949 301.42 105.949 302.061C105.949 302.702 106.469 303.222 107.11 303.222Z" fill="#114A82"/>
<path d="M220.034 58.7551C221.427 58.7551 222.556 57.6256 222.556 56.2322C222.556 54.8389 221.427 53.7094 220.034 53.7094C218.64 53.7094 217.511 54.8389 217.511 56.2322C217.511 57.6256 218.64 58.7551 220.034 58.7551Z" fill="#114A82"/>
<path d="M246.09 61.056C244.748 61.056 243.658 59.9661 243.658 58.6239C243.658 57.2818 244.748 56.1919 246.09 56.1919C247.432 56.1919 248.522 57.2818 248.522 58.6239C248.522 59.9661 247.432 61.056 246.09 61.056Z" fill="#114A82"/>
<path d="M271.259 68.0999C272.546 68.0999 273.59 67.0562 273.59 65.7688C273.59 64.4813 272.546 63.4376 271.259 63.4376C269.971 63.4376 268.928 64.4813 268.928 65.7688C268.928 67.0562 269.971 68.0999 271.259 68.0999Z" fill="#114A82"/>
<path d="M294.671 79.6848C293.44 79.6848 292.431 78.6858 292.431 77.4445C292.431 76.2134 293.43 75.2042 294.671 75.2042C295.902 75.2042 296.911 76.2033 296.911 77.4445C296.901 78.6858 295.902 79.6848 294.671 79.6848Z" fill="#114A82"/>
<path d="M315.529 95.3671C314.348 95.3671 313.39 94.4084 313.39 93.2277C313.39 92.047 314.348 91.0883 315.529 91.0883C316.71 91.0883 317.668 92.047 317.668 93.2277C317.668 94.4084 316.72 95.3671 315.529 95.3671Z" fill="#114A82"/>
<path d="M333.159 114.601C332.029 114.601 331.11 113.683 331.11 112.553C331.11 111.423 332.029 110.504 333.159 110.504C334.289 110.504 335.207 111.423 335.207 112.553C335.207 113.683 334.289 114.601 333.159 114.601Z" fill="#114A82"/>
<path d="M346.954 136.742C345.875 136.742 345.007 135.864 345.007 134.794C345.007 133.715 345.885 132.847 346.954 132.847C348.024 132.847 348.902 133.725 348.902 134.794C348.902 135.864 348.034 136.742 346.954 136.742Z" fill="#114A82"/>
<path d="M356.41 161.032C357.435 161.032 358.266 160.201 358.266 159.175C358.266 158.15 357.435 157.319 356.41 157.319C355.384 157.319 354.553 158.15 354.553 159.175C354.553 160.201 355.384 161.032 356.41 161.032Z" fill="#114A82"/>
<path d="M361.193 186.665C360.225 186.665 359.438 185.878 359.438 184.909C359.438 183.94 360.225 183.153 361.193 183.153C362.162 183.153 362.949 183.94 362.949 184.909C362.949 185.878 362.162 186.665 361.193 186.665Z" fill="#114A82"/>
<path d="M361.193 212.731C360.275 212.731 359.528 211.984 359.528 211.066C359.528 210.148 360.275 209.401 361.193 209.401C362.112 209.401 362.858 210.148 362.858 211.066C362.858 211.984 362.112 212.731 361.193 212.731Z" fill="#114A82"/>
<path d="M356.41 238.353C355.542 238.353 354.846 237.647 354.846 236.789C354.846 235.921 355.552 235.225 356.41 235.225C357.278 235.225 357.974 235.931 357.974 236.789C357.974 237.647 357.278 238.353 356.41 238.353Z" fill="#114A82"/>
<path d="M346.954 262.654C346.136 262.654 345.48 261.998 345.48 261.18C345.48 260.363 346.136 259.707 346.954 259.707C347.771 259.707 348.427 260.363 348.427 261.18C348.427 261.988 347.771 262.654 346.954 262.654Z" fill="#114A82"/>
<path d="M333.169 284.784C332.412 284.784 331.797 284.169 331.797 283.412C331.797 282.655 332.412 282.039 333.169 282.039C333.926 282.039 334.542 282.655 334.542 283.412C334.542 284.169 333.926 284.784 333.169 284.784Z" fill="#114A82"/>
<path d="M315.539 304.019C314.833 304.019 314.258 303.443 314.258 302.737C314.258 302.031 314.833 301.455 315.539 301.455C316.246 301.455 316.821 302.031 316.821 302.737C316.811 303.443 316.246 304.019 315.539 304.019Z" fill="#114A82"/>
<path d="M294.67 319.701C294.014 319.701 293.489 319.166 293.489 318.52C293.489 317.874 294.024 317.339 294.67 317.339C295.326 317.339 295.851 317.874 295.851 318.52C295.851 319.166 295.326 319.701 294.67 319.701Z" fill="#114A82"/>
<path d="M271.259 331.286C270.653 331.286 270.169 330.801 270.169 330.196C270.169 329.59 270.653 329.106 271.259 329.106C271.864 329.106 272.349 329.59 272.349 330.196C272.349 330.801 271.864 331.286 271.259 331.286Z" fill="#114A82"/>
<path d="M246.09 338.34C246.642 338.34 247.089 337.892 247.089 337.341C247.089 336.789 246.642 336.342 246.09 336.342C245.538 336.342 245.091 336.789 245.091 337.341C245.091 337.892 245.538 338.34 246.09 338.34Z" fill="#114A82"/>
<path d="M220.034 340.631C220.53 340.631 220.932 340.228 220.932 339.732C220.932 339.236 220.53 338.834 220.034 338.834C219.538 338.834 219.136 339.236 219.136 339.732C219.136 340.228 219.538 340.631 220.034 340.631Z" fill="#114A82"/>
<path d="M220.034 72.3786C221.427 72.3786 222.556 71.2491 222.556 69.8558C222.556 68.4624 221.427 67.3329 220.034 67.3329C218.64 67.3329 217.511 68.4624 217.511 69.8558C217.511 71.2491 218.64 72.3786 220.034 72.3786Z" fill="#114A82"/>
<path d="M245.04 74.5887C243.768 74.5887 242.749 73.5594 242.749 72.298C242.749 71.0264 243.778 70.0072 245.04 70.0072C246.301 70.0072 247.331 71.0365 247.331 72.298C247.341 73.5594 246.311 74.5887 245.04 74.5887Z" fill="#114A82"/>
<path d="M269.088 81.6426C267.948 81.6426 267.02 80.7142 267.02 79.5739C267.02 78.4335 267.948 77.5051 269.088 77.5051C270.229 77.5051 271.157 78.4335 271.157 79.5739C271.157 80.7142 270.229 81.6426 269.088 81.6426Z" fill="#114A82"/>
<path d="M291.229 93.268C292.244 93.268 293.066 92.4457 293.066 91.4314C293.066 90.417 292.244 89.5947 291.229 89.5947C290.215 89.5947 289.393 90.417 289.393 91.4314C289.393 92.4457 290.215 93.268 291.229 93.268Z" fill="#114A82"/>
<path d="M310.645 108.991C309.757 108.991 309.03 108.264 309.03 107.376C309.03 106.488 309.757 105.761 310.645 105.761C311.533 105.761 312.26 106.488 312.26 107.376C312.26 108.264 311.533 108.991 310.645 108.991Z" fill="#114A82"/>
<path d="M326.59 128.174C325.823 128.174 325.207 127.559 325.207 126.792C325.207 126.025 325.823 125.409 326.59 125.409C327.357 125.409 327.972 126.025 327.972 126.792C327.972 127.559 327.357 128.174 326.59 128.174Z" fill="#114A82"/>
<path d="M338.447 150.093C337.811 150.093 337.286 149.578 337.286 148.933C337.286 148.297 337.801 147.772 338.447 147.772C339.082 147.772 339.607 148.287 339.607 148.933C339.607 149.578 339.082 150.093 338.447 150.093Z" fill="#114A82"/>
<path d="M345.733 173.909C345.218 173.909 344.805 173.495 344.805 172.981C344.805 172.466 345.218 172.052 345.733 172.052C346.248 172.052 346.662 172.466 346.662 172.981C346.662 173.495 346.248 173.909 345.733 173.909Z" fill="#114A82"/>
<path d="M348.175 198.684C348.559 198.684 348.871 198.372 348.871 197.987C348.871 197.603 348.559 197.291 348.175 197.291C347.79 197.291 347.479 197.603 347.479 197.987C347.479 198.372 347.79 198.684 348.175 198.684Z" fill="#114A82"/>
<path d="M104.861 259.717C47.2584 259.717 0.393555 212.852 0.393555 155.24C0.393555 97.6275 47.2584 50.7727 104.861 50.7727C162.463 50.7727 209.338 97.6376 209.338 155.24C209.338 212.842 162.473 259.717 104.861 259.717ZM104.861 52.791C48.3685 52.791 2.41185 98.7476 2.41185 155.24C2.41185 211.732 48.3685 257.699 104.861 257.699C161.353 257.699 207.32 211.742 207.32 155.24C207.32 98.7476 161.353 52.791 104.861 52.791Z" fill="#0B315E"/>
<path d="M104.861 242.632C56.6739 242.632 17.4785 203.427 17.4785 155.25C17.4785 107.063 56.684 67.8678 104.861 67.8678C153.048 67.8678 192.243 107.073 192.243 155.25C192.253 203.427 153.048 242.632 104.861 242.632ZM104.861 74.7704C60.4884 74.7704 24.3912 110.868 24.3912 155.24C24.3912 199.612 60.4884 235.709 104.861 235.709C149.233 235.709 185.33 199.612 185.33 155.24C185.33 110.868 149.233 74.7704 104.861 74.7704Z" fill="#FF9D00"/>
<path d="M104.861 225.537C66.0994 225.537 34.5635 194.001 34.5635 155.24C34.5635 116.478 66.0994 84.9425 104.861 84.9425C143.622 84.9425 175.158 116.478 175.158 155.24C175.158 194.001 143.622 225.537 104.861 225.537ZM104.861 86.9608C67.2095 86.9608 36.5818 117.588 36.5818 155.24C36.5818 192.891 67.2095 223.519 104.861 223.519C142.512 223.519 173.14 192.891 173.14 155.24C173.14 117.588 142.512 86.9608 104.861 86.9608Z" fill="#0B315E"/>
<path d="M104.861 208.452C75.5249 208.452 51.6484 184.586 51.6484 155.24C51.6484 125.894 75.5148 102.027 104.861 102.027C134.207 102.027 158.073 125.894 158.073 155.24C158.073 184.586 134.207 208.452 104.861 208.452ZM104.861 104.056C76.635 104.056 53.6667 127.024 53.6667 155.25C53.6667 183.476 76.635 206.444 104.861 206.444C133.087 206.444 156.055 183.476 156.055 155.25C156.055 127.024 133.097 104.056 104.861 104.056Z" fill="#0B315E"/>
<path d="M104.861 191.367C84.94 191.367 68.7432 175.16 68.7432 155.24C68.7432 135.319 84.9501 119.122 104.861 119.122C124.781 119.122 140.988 135.329 140.988 155.24C140.988 175.16 124.781 191.367 104.861 191.367ZM104.861 121.141C86.0602 121.141 70.7615 136.439 70.7615 155.24C70.7615 174.04 86.0602 189.349 104.861 189.349C123.661 189.349 138.97 174.05 138.97 155.24C138.97 136.429 123.671 121.141 104.861 121.141Z" fill="#0B315E"/>
<path d="M104.861 174.283C94.3655 174.283 85.8281 165.745 85.8281 155.25C85.8281 144.755 94.3655 136.217 104.861 136.217C115.356 136.217 123.893 144.755 123.893 155.25C123.903 165.735 115.356 174.283 104.861 174.283ZM104.861 138.226C95.4756 138.226 87.8464 145.855 87.8464 155.24C87.8464 164.625 95.4756 172.254 104.861 172.254C114.246 172.254 121.875 164.625 121.875 155.24C121.885 145.865 114.246 138.226 104.861 138.226Z" fill="#0B315E"/>
<path d="M245.234 349.935C316.211 349.935 373.749 292.397 373.749 221.42C373.749 150.443 316.211 92.9048 245.234 92.9048C174.257 92.9048 116.719 150.443 116.719 221.42C116.719 292.397 174.257 349.935 245.234 349.935Z" fill="url(#paint0_radial_23_122)"/>
<path d="M217.108 318.076C283.431 318.076 337.197 264.311 337.197 197.987C337.197 131.664 283.431 77.8987 217.108 77.8987C150.785 77.8987 97.0195 131.664 97.0195 197.987C97.0195 264.311 150.785 318.076 217.108 318.076Z" fill="#0B315E"/>
<path d="M203.274 255.156L210.328 248.102L208.249 246.023L199.126 255.156L208.249 264.289L210.328 262.21L203.274 255.156Z" fill="white"/>
<path d="M215.585 255.156L222.639 248.102L220.561 246.023L211.428 255.156L220.561 264.289L222.639 262.21L215.585 255.156Z" fill="white"/>
<path d="M228.048 255.156L235.102 248.102L233.023 246.023L223.891 255.156L233.023 264.289L235.102 262.21L228.048 255.156Z" fill="white"/>
<path d="M230.945 152.435L223.891 159.488L225.969 161.557L235.102 152.435L225.969 143.302L223.891 145.381L230.945 152.435Z" fill="white"/>
<path d="M218.633 152.435L211.579 159.488L213.658 161.557L222.791 152.435L213.658 143.302L211.579 145.381L218.633 152.435Z" fill="white"/>
<path d="M206.18 152.435L199.126 159.488L201.195 161.557L210.328 152.435L201.195 143.302L199.126 145.381L206.18 152.435Z" fill="white"/>
<path d="M415.579 295.288C439.56 271.307 439.56 232.427 415.579 208.446C391.599 184.466 352.719 184.466 328.738 208.447C304.757 232.427 304.757 271.307 328.738 295.288C352.719 319.268 391.599 319.268 415.579 295.288Z" fill="#FF9D00"/>
<path d="M381.538 274.183C393.854 268.994 399.631 254.803 394.441 242.487C389.252 230.171 375.061 224.394 362.745 229.584C350.429 234.773 344.652 248.964 349.842 261.28C355.032 273.596 369.222 279.373 381.538 274.183Z" fill="#0B315E"/>
<defs>
<radialGradient id="paint0_radial_23_122" cx="0" cy="0" r="1" gradientUnits="userSpaceOnUse" gradientTransform="translate(245.236 221.422) scale(128.518)">
<stop/>
<stop offset="1" stop-color="white"/>
</radialGradient>
</defs>
</svg>
