<svg width="129" height="183" viewBox="0 0 129 183" fill="none" xmlns="http://www.w3.org/2000/svg">
<path d="M15.5073 -61.7994L80.7891 -24.1089C90.0756 -18.7473 95.7964 -8.8387 95.7964 1.88449V77.2654C95.7964 87.9885 90.0756 97.8972 80.7891 103.259L15.5073 140.949C6.22076 146.311 -5.22075 146.311 -14.5073 140.949L-79.789 103.259C-89.0756 97.8972 -94.7963 87.9885 -94.7963 77.2654V1.88449C-94.7963 -8.83869 -89.0756 -18.7473 -79.7891 -24.1089L-14.5073 -61.7994C-5.22075 -67.161 6.22075 -67.161 15.5073 -61.7994Z" fill="#FF9D00"/>
<path fill-rule="evenodd" clip-rule="evenodd" d="M19.2591 -97.9735C7.65093 -104.676 -6.65096 -104.675 -18.2591 -97.9735L-109.241 -45.4452C-120.849 -38.7432 -128 -26.3574 -128 -12.9534V92.1032C-128 105.507 -120.849 117.893 -109.241 124.595L-18.2591 177.123C-6.65094 183.825 7.65094 183.825 19.2591 177.123L110.241 124.595C121.849 117.893 129 105.507 129 92.1032V-12.9534C129 -26.3574 121.849 -38.7432 110.241 -45.4452L19.2591 -97.9735ZM-18.2591 -68.2977C-6.65094 -74.9997 7.65094 -74.9997 19.2591 -68.2977L84.5409 -30.6073C96.1491 -23.9053 103.3 -11.5195 103.3 1.88449V77.2654C103.3 90.6693 96.1491 103.055 84.5409 109.757L19.2591 147.448C7.65094 154.15 -6.65093 154.15 -18.2591 147.448L-83.5409 109.757C-95.149 103.055 -102.3 90.6693 -102.3 77.2654V1.88449C-102.3 -11.5195 -95.1491 -23.9053 -83.5409 -30.6073L-18.2591 -68.2977Z" fill="#FF9D00"/>
</svg>
