<svg width="105" height="103" viewBox="0 0 105 103" fill="none" xmlns="http://www.w3.org/2000/svg">
<path d="M18.6887 2.35396L52.1004 -2.27429C56.8533 -2.93267 61.5965 -1.00538 64.5431 2.78158L85.2571 29.4028C88.2038 33.1898 88.9063 38.2611 87.1 42.7065L74.4023 73.956C72.596 78.4013 68.5554 81.5454 63.8024 82.2037L30.3907 86.832C25.6378 87.4904 20.8947 85.5631 17.948 81.7761L-2.766 55.1549C-5.71264 51.3679 -6.41513 46.2966 -4.60885 41.8512L8.08883 10.6017C9.89511 6.15637 13.9358 3.01235 18.6887 2.35396Z" fill="#FF9D00"/>
<path fill-rule="evenodd" clip-rule="evenodd" d="M10.0733 -11.4522C4.13215 -10.6292 -0.918656 -6.69913 -3.17651 -1.14245L-20.873 42.4093C-23.1308 47.966 -22.2527 54.3051 -18.5694 59.0388L10.2993 96.1403C13.9826 100.874 19.9115 103.283 25.8526 102.46L72.4178 96.0098C78.359 95.1869 83.4098 91.2568 85.6676 85.7001L103.364 42.1484C105.622 36.5917 104.744 30.2526 101.061 25.5189L72.1919 -11.5826C68.5086 -16.3163 62.5796 -18.7254 56.6385 -17.9024L10.0733 -11.4522ZM4.97816 9.33775C7.23601 3.78107 12.2868 -0.148966 18.228 -0.971945L51.6397 -5.60019C57.5808 -6.42317 63.5098 -4.01406 67.1931 0.719642L87.9071 27.3409C91.5904 32.0746 92.4685 38.4137 90.2106 43.9704L77.513 75.2199C75.2551 80.7766 70.2043 84.7067 64.2631 85.5296L30.8514 90.1579C24.9103 90.9809 18.9814 88.5718 15.2981 83.8381L-5.41597 57.2168C-9.09927 52.4831 -9.97738 46.144 -7.71952 40.5873L4.97816 9.33775Z" fill="#FF9D00"/>
</svg>
